<svg width="44" height="42" viewBox="0 0 44 42" fill="none" xmlns="http://www.w3.org/2000/svg">
<g clip-path="url(#clip0_504_64160)">
<path opacity="0.4" d="M39.75 33.4699H9.72998C9.72998 31.7999 10.34 30.2799 11.33 29.0999C12.53 27.6799 13.09 25.8299 13.09 23.9699C13.09 20.8499 13.14 17.6599 16.6 17.6599C19.25 17.6599 20.89 21.3199 22.97 22.9499C26.3 25.5599 32.23 26.1099 36.39 23.9699C36.39 25.8299 36.95 27.6799 38.15 29.0999C39.15 30.2699 39.75 31.7999 39.75 33.4699Z" fill="url(#paint0_linear_504_64160)"/>
<path d="M35.48 21.68V16.48C35.48 8.9 29.33 2.75 21.75 2.75C14.17 2.75 8.02 8.9 8.02 16.48V21.68C8.02 23.98 7.23 26.21 5.75 27.97C4.5 29.46 3.75 31.38 3.75 33.47H39.75C39.75 31.37 39 29.46 37.75 27.97C36.28 26.21 35.48 23.98 35.48 21.68Z" stroke="#5399FF" stroke-width="3.5" stroke-linecap="round" stroke-linejoin="round"/>
<path d="M21.7501 39.65C25.1701 39.65 27.9401 36.88 27.9401 33.46H15.5601C15.5601 36.88 18.3301 39.65 21.7501 39.65Z" stroke="#5399FF" stroke-width="3.5" stroke-linecap="round" stroke-linejoin="round"/>
<path d="M8.02002 16.4799C8.02002 16.4799 14.32 9.5499 20.61 16.4799C26.62 23.0999 30.18 22.8699 35.48 20.1399" stroke="#5399FF" stroke-width="3.5" stroke-linecap="round" stroke-linejoin="round"/>
</g>
<defs>
<linearGradient id="paint0_linear_504_64160" x1="7.8311" y1="17.6132" x2="42.4607" y2="18.5775" gradientUnits="userSpaceOnUse">
<stop stop-color="#24FFDD"/>
<stop offset="1" stop-color="#32C1FF"/>
</linearGradient>
<clipPath id="clip0_504_64160">
<rect width="39.5" height="40.4" fill="white" transform="translate(2 1)"/>
</clipPath>
</defs>
</svg>
