<svg width="136" height="136" viewBox="0 0 136 136" fill="none" xmlns="http://www.w3.org/2000/svg">
<g clip-path="url(#clip0_208_62879)">
<path d="M104.33 48.2299C104.33 35.8899 92.65 28.6199 81.99 27.6699C70.21 26.6199 63.67 24.7899 54.53 13.0199C53.84 12.1299 52.55 11.9899 51.68 12.6999C46.97 16.5499 33.92 29.1499 35.24 49.5899H104.33V48.2199V48.2299Z" fill="#FFFFFD"/>
<path d="M104.22 46.3399C104.22 46.2699 104.21 46.1899 104.2 46.1199C104.13 45.5399 104.04 44.9699 103.92 44.4099C103.9 44.3199 103.88 44.2199 103.86 44.1299C103.74 43.5899 103.59 43.0499 103.41 42.5299C103.38 42.4399 103.35 42.3499 103.32 42.2599C103.14 41.7399 102.94 41.2299 102.71 40.7299C102.68 40.6699 102.65 40.6099 102.62 40.5499C102.38 40.0299 102.11 39.5199 101.82 39.0299C101.53 38.5299 101.21 38.0499 100.87 37.5899C100.84 37.5399 100.81 37.4999 100.77 37.4499C100.44 37.0099 100.1 36.5799 99.7299 36.1699C99.6799 36.1099 99.6199 36.0499 99.5699 35.9899C99.2099 35.5899 98.8299 35.1999 98.4299 34.8199C98.3699 34.7699 98.3099 34.7099 98.2599 34.6599C97.8499 34.2799 97.4399 33.9099 96.9999 33.5699C96.9599 33.5399 96.9199 33.5099 96.8799 33.4699C95.9499 32.7299 94.9599 32.0599 93.9299 31.4599C93.9099 31.4499 93.8799 31.4299 93.8599 31.4199C93.3499 31.1299 92.8399 30.8499 92.3099 30.5899C92.2599 30.5699 92.2099 30.5399 92.1599 30.5199C91.6399 30.2699 91.1099 30.0299 90.5799 29.8099C90.5299 29.7899 90.4799 29.7699 90.4299 29.7499C89.8799 29.5299 89.3299 29.3199 88.7799 29.1299C88.7499 29.1299 88.7299 29.1099 88.6999 29.0999C87.5299 28.7099 86.3399 28.3899 85.1499 28.1399C90.1699 31.4699 93.8699 36.5199 94.2299 43.0699H35.3099C35.1799 44.6299 35.1199 46.2399 35.1699 47.9099C35.1799 48.4699 35.1999 49.0199 35.2399 49.5899H104.33V48.2199C104.33 47.5699 104.29 46.9499 104.23 46.3299L104.22 46.3399Z" fill="#EEECE3"/>
<path d="M104.33 48.2299C104.33 35.8899 92.65 28.6199 81.99 27.6699C70.21 26.6199 63.67 24.7899 54.53 13.0199C53.84 12.1299 52.55 11.9899 51.68 12.6999C46.97 16.5499 33.92 29.1499 35.24 49.5899H104.33V48.2199V48.2299Z" stroke="#3A3A3A" stroke-width="4.5" stroke-miterlimit="10"/>
<path d="M31.96 82.2301C47.2638 82.2301 59.67 69.8239 59.67 54.5201C59.67 39.2162 47.2638 26.8101 31.96 26.8101C16.6562 26.8101 4.25 39.2162 4.25 54.5201C4.25 69.8239 16.6562 82.2301 31.96 82.2301Z" fill="#F65E5E" stroke="#3A3A3A" stroke-width="4.5" stroke-miterlimit="10"/>
<path d="M31.9599 74.0899C42.7681 74.0899 51.5299 65.3282 51.5299 54.52C51.5299 43.7117 42.7681 34.95 31.9599 34.95C21.1517 34.95 12.3899 43.7117 12.3899 54.52C12.3899 65.3282 21.1517 74.0899 31.9599 74.0899Z" fill="#FFD5A3"/>
<path d="M31.96 49.5999V34.95" stroke="#3A3A3A" stroke-width="4.5" stroke-miterlimit="10" stroke-linecap="round"/>
<path d="M31.96 54.52L15.01 44.73" stroke="#3A3A3A" stroke-width="4.5" stroke-miterlimit="10" stroke-linecap="round"/>
<path d="M31.96 54.52L15.01 64.31" stroke="#3A3A3A" stroke-width="4.5" stroke-miterlimit="10" stroke-linecap="round"/>
<path d="M31.9599 74.0899C42.7681 74.0899 51.5299 65.3282 51.5299 54.52C51.5299 43.7117 42.7681 34.95 31.9599 34.95C21.1517 34.95 12.3899 43.7117 12.3899 54.52C12.3899 65.3282 21.1517 74.0899 31.9599 74.0899Z" stroke="#3A3A3A" stroke-width="4.5" stroke-miterlimit="10" stroke-linecap="round"/>
<path d="M86.2001 66.3199L78.6201 63.7699L91.7901 24.6399C93.4001 19.8499 97.8801 16.6299 102.94 16.6299H113.42C114.08 16.6299 114.62 17.1699 114.62 17.8299V23.4299C114.62 24.0899 114.08 24.6299 113.42 24.6299H102.94C101.32 24.6299 99.8901 25.6599 99.3701 27.1999L86.2001 66.3299V66.3199Z" fill="#5BBEE0" stroke="#3A3A3A" stroke-width="4.5" stroke-miterlimit="10"/>
<path d="M89.4999 131.02H49.7099C46.7499 131.02 44.1799 128.99 43.6599 126.23L31.1799 59.4399H108.03L95.5599 126.23C95.0399 128.99 92.4799 131.02 89.5099 131.02H89.4999Z" fill="#FFFFFD"/>
<path d="M55.5701 81.92V83.92" stroke="#3A3A3A" stroke-width="5.5" stroke-miterlimit="10" stroke-linecap="round"/>
<path d="M83.6501 81.92V83.92" stroke="#3A3A3A" stroke-width="5.5" stroke-miterlimit="10" stroke-linecap="round"/>
<path d="M63.5 85.3201V87.9801C63.5 91.0801 65.71 93.8501 68.78 94.2601C72.5 94.7501 75.71 91.8401 75.71 88.2101V85.3301C75.71 84.5601 75.08 83.9301 74.31 83.9301H64.9C64.13 83.9301 63.5 84.5601 63.5 85.3301V85.3201Z" fill="#F65E5E" stroke="#3A3A3A" stroke-width="4" stroke-miterlimit="10" stroke-linecap="round"/>
<path d="M89.83 87.6101H85.53C83.9836 87.6101 82.73 88.8615 82.73 90.4051C82.73 91.9487 83.9836 93.2001 85.53 93.2001H89.83C91.3764 93.2001 92.63 91.9487 92.63 90.4051C92.63 88.8615 91.3764 87.6101 89.83 87.6101Z" fill="#FFB2B2"/>
<path d="M53.6901 87.6101H49.3901C47.8437 87.6101 46.5901 88.8615 46.5901 90.4051C46.5901 91.9487 47.8437 93.2001 49.3901 93.2001H53.6901C55.2365 93.2001 56.4901 91.9487 56.4901 90.4051C56.4901 88.8615 55.2365 87.6101 53.6901 87.6101Z" fill="#FFB2B2"/>
<path d="M86.3799 116.4C77.7599 116.4 77.7599 112.4 69.1299 112.4C60.4999 112.4 60.5099 116.4 51.8799 116.4C46.6899 116.4 44.6199 114.95 41.9199 113.8L43.7699 125.92C44.2199 128.85 46.7399 131.01 49.6999 131.01H89.4999C92.4599 131.01 94.9799 128.85 95.4299 125.92L97.3399 113.4C94.0899 114.58 92.1799 116.4 86.3799 116.4V116.4Z" fill="#5298FF"/>
<path d="M104.49 59.84H32.54L33.59 66.72H96.3L87.2 126.33C86.75 129.26 84.23 131.42 81.27 131.42H88.41C91.37 131.42 93.89 129.26 94.34 126.33L106.93 59.85H104.49V59.84Z" fill="#DBD7D2"/>
<path d="M96.7499 113.64C94.2999 114.63 92.4799 115.91 88.7399 116.29L87.2099 126.33C86.8799 128.51 85.3899 130.27 83.4299 131.02H89.5199C90.0399 131.02 90.5399 130.93 91.0199 130.81C92.7599 129.97 94.0499 128.34 94.3599 126.33L96.7599 113.64H96.7499Z" fill="#428DE9"/>
<path d="M110.73 49.6001H28.49C27.3854 49.6001 26.49 50.4955 26.49 51.6001V57.4501C26.49 58.5547 27.3854 59.4501 28.49 59.4501H110.73C111.835 59.4501 112.73 58.5547 112.73 57.4501V51.6001C112.73 50.4955 111.835 49.6001 110.73 49.6001Z" fill="#44DFC7" stroke="#3A3A3A" stroke-width="4.5" stroke-miterlimit="10"/>
<path d="M86.3799 116.4C77.7599 116.4 77.7599 112.4 69.1299 112.4C60.4999 112.4 60.5099 116.4 51.8799 116.4C46.6899 116.4 44.6199 114.95 41.9199 113.8L43.7699 125.92C44.2199 128.85 46.7399 131.01 49.6999 131.01H89.4999C92.4599 131.01 94.9799 128.85 95.4299 125.92L97.3399 113.4C94.0899 114.58 92.1799 116.4 86.3799 116.4V116.4Z" stroke="#3A3A3A" stroke-width="4.5" stroke-miterlimit="10"/>
<path d="M89.4999 131.02H49.7099C46.7499 131.02 44.1799 128.99 43.6599 126.23L31.1799 59.4399H108.03L95.5599 126.23C95.0399 128.99 92.4799 131.02 89.5099 131.02H89.4999Z" stroke="#3A3A3A" stroke-width="4.5" stroke-miterlimit="10"/>
</g>
<defs>
<clipPath id="clip0_208_62879">
<rect width="114.87" height="123.27" fill="white" transform="translate(2 10)"/>
</clipPath>
</defs>
</svg>
