<svg width="136" height="136" viewBox="0 0 136 136" fill="none" xmlns="http://www.w3.org/2000/svg">
<g clip-path="url(#clip0_654_66917)">
<path d="M84.9401 65.95L77.3601 63.4L90.5301 24.27C92.1401 19.48 96.6201 16.26 101.68 16.26H112.16C112.82 16.26 113.36 16.8 113.36 17.46V23.06C113.36 23.72 112.82 24.26 112.16 24.26H101.68C100.06 24.26 98.6301 25.29 98.1101 26.83L84.9401 65.96V65.95Z" fill="#F65E5E" stroke="#3A3A3A" stroke-width="4.5" stroke-miterlimit="10"/>
<path d="M88.2499 130.65H48.4499C45.4899 130.65 42.9199 128.62 42.3999 125.86L29.9299 59.0699H106.77L94.2999 125.86C93.7799 128.62 91.2199 130.65 88.2499 130.65V130.65Z" fill="white"/>
<path d="M32.3701 59.0699L33.4201 65.9499H96.1301L87.0301 125.56C86.5801 128.49 84.0601 130.65 81.1001 130.65H88.2501C91.2101 130.65 93.7801 128.62 94.3001 125.86L106.77 59.0699H32.3701V59.0699Z" fill="#90B9E9"/>
<path d="M109.47 49.22H27.23C26.1254 49.22 25.23 50.1154 25.23 51.22V57.07C25.23 58.1745 26.1254 59.07 27.23 59.07H109.47C110.575 59.07 111.47 58.1745 111.47 57.07V51.22C111.47 50.1154 110.575 49.22 109.47 49.22Z" fill="#D1FAFF" stroke="#3A3A3A" stroke-width="4.5" stroke-miterlimit="10"/>
<path d="M42.4 125.86C42.92 128.62 45.4801 130.65 48.4501 130.65H88.25C91.21 130.65 93.7801 128.62 94.3001 125.86L103.32 77.58C95.3601 74.37 81.07 71.25 66.23 80.88C54.48 88.5 43.16 88.34 35.05 86.46L42.41 125.86H42.4Z" fill="#F65E5E"/>
<path d="M94.7401 75.09L87.0401 125.56C86.5901 128.49 84.0701 130.65 81.1101 130.65H88.2501C88.4301 130.65 88.6001 130.62 88.7701 130.61C88.9601 130.59 89.1501 130.59 89.3401 130.56C89.4401 130.54 89.5401 130.5 89.6401 130.48C89.8901 130.42 90.1401 130.37 90.3701 130.29C90.4001 130.29 90.4201 130.26 90.4501 130.25C90.7501 130.14 91.0501 130.01 91.3301 129.86C91.4401 129.8 91.5401 129.72 91.6401 129.65C91.8301 129.53 92.0201 129.42 92.1901 129.29C92.2701 129.23 92.3301 129.16 92.4001 129.09C92.5901 128.93 92.7701 128.77 92.9401 128.59C93.0301 128.49 93.1001 128.37 93.1801 128.27C93.3101 128.11 93.4401 127.95 93.5501 127.78C93.6401 127.64 93.7001 127.48 93.7801 127.33C93.8601 127.17 93.9501 127.03 94.0101 126.86C94.1401 126.54 94.2301 126.21 94.3001 125.86L103.32 77.58C100.97 76.63 98.0501 75.69 94.7401 75.09V75.09Z" fill="#D13F3F"/>
<path d="M88.2499 130.65H48.4499C45.4899 130.65 42.9199 128.62 42.3999 125.86L29.9299 59.0699H106.77L94.2999 125.86C93.7799 128.62 91.2199 130.65 88.2499 130.65V130.65Z" stroke="#3A3A3A" stroke-width="4.5" stroke-miterlimit="10"/>
<path d="M33.22 63.4901C40.6372 63.4901 46.65 57.4773 46.65 50.0601C46.65 42.6429 40.6372 36.6301 33.22 36.6301C25.8029 36.6301 19.79 42.6429 19.79 50.0601C19.79 57.4773 25.8029 63.4901 33.22 63.4901Z" fill="#F65E5E" stroke="#3A3A3A" stroke-width="4.5" stroke-miterlimit="10"/>
<path d="M15.25 35.02C15.25 35.02 25.52 35.02 29.1 43.67" stroke="#3A3A3A" stroke-width="4.5" stroke-miterlimit="10" stroke-linecap="round"/>
<path d="M42.4 125.86C42.92 128.62 45.4801 130.65 48.4501 130.65H88.25C91.21 130.65 93.7801 128.62 94.3001 125.86L103.32 77.58C95.3601 74.37 81.07 71.25 66.23 80.88C54.48 88.5 43.16 88.34 35.05 86.46L42.41 125.86H42.4Z" stroke="#3A3A3A" stroke-width="4.5" stroke-miterlimit="10"/>
<path d="M42.3999 125.86C42.9199 128.62 45.4799 130.65 48.4499 130.65H88.2499C91.2099 130.65 93.7799 128.62 94.2999 125.86L101.29 88.42C93.7199 90.45 84.1499 90.32 74.7999 82.69C56.3799 67.65 41.2399 74.85 33.9099 80.4L42.3999 125.86V125.86Z" fill="#FFD3C5"/>
<path d="M92.5301 89.51L87.0301 125.55C86.5801 128.48 84.0601 130.64 81.1001 130.64H88.2401C88.4201 130.64 88.5901 130.61 88.7601 130.6C88.9501 130.58 89.1401 130.58 89.3301 130.55C89.4501 130.53 89.5701 130.48 89.6901 130.46C89.9201 130.41 90.1501 130.36 90.3601 130.29C90.3901 130.29 90.4101 130.26 90.4401 130.25C90.7401 130.14 91.0401 130.01 91.3201 129.86C91.5301 129.74 91.7301 129.6 91.9201 129.46C92.0101 129.4 92.1001 129.35 92.1801 129.29C92.2901 129.2 92.3801 129.1 92.4901 129C92.6401 128.87 92.8001 128.74 92.9301 128.59C93.0701 128.43 93.1901 128.25 93.3101 128.08C93.3901 127.98 93.4701 127.88 93.5401 127.77C93.6301 127.63 93.6901 127.47 93.7701 127.32C93.8501 127.16 93.9401 127.02 94.0001 126.85C94.1301 126.53 94.2201 126.2 94.2901 125.85L101.28 88.41C98.5801 89.13 95.6301 89.57 92.5301 89.5V89.51Z" fill="#F9BCAC"/>
<path d="M42.3999 125.86C42.9199 128.62 45.4799 130.65 48.4499 130.65H88.2499C91.2099 130.65 93.7799 128.62 94.2999 125.86L101.29 88.42C93.7199 90.45 84.1499 90.32 74.7999 82.69C56.3799 67.65 41.2399 74.85 33.9099 80.4L42.3999 125.86V125.86Z" stroke="#3A3A3A" stroke-width="4.5" stroke-miterlimit="10"/>
<path d="M54.3101 95.26V97.26" stroke="#3A3A3A" stroke-width="5.5" stroke-miterlimit="10" stroke-linecap="round"/>
<path d="M82.3901 95.26V97.26" stroke="#3A3A3A" stroke-width="5.5" stroke-miterlimit="10" stroke-linecap="round"/>
<path d="M88.57 100.96H84.27C82.7236 100.96 81.47 102.211 81.47 103.755C81.47 105.299 82.7236 106.55 84.27 106.55H88.57C90.1164 106.55 91.37 105.299 91.37 103.755C91.37 102.211 90.1164 100.96 88.57 100.96Z" fill="#FF7D7D"/>
<path d="M52.4301 100.96H48.1301C46.5837 100.96 45.3301 102.211 45.3301 103.755C45.3301 105.299 46.5837 106.55 48.1301 106.55H52.4301C53.9765 106.55 55.2301 105.299 55.2301 103.755C55.2301 102.211 53.9765 100.96 52.4301 100.96Z" fill="#FF7D7D"/>
<path d="M62.47 99.59C63.7 101.23 65.87 102.32 68.34 102.32C70.81 102.32 72.98 101.23 74.21 99.59" stroke="#3A3A3A" stroke-width="4" stroke-miterlimit="10" stroke-linecap="round"/>
</g>
<defs>
<clipPath id="clip0_654_66917">
<rect width="102.61" height="118.9" fill="white" transform="translate(13 14)"/>
</clipPath>
</defs>
</svg>
