<svg width="24" height="24" viewBox="0 0 24 24" fill="none" xmlns="http://www.w3.org/2000/svg">
<g clip-path="url(#clip0_527_63946)">
<path d="M21.27 8.76988L12.66 2.13988C12.42 1.95988 12.09 1.95988 11.86 2.13988L3.26 8.76988C3.1 8.88988 3 9.08988 3 9.28988V20.9399C3 21.7599 3.66 22.4199 4.48 22.4199H7.52C7.96 22.4199 8.32 22.0599 8.32 21.6199V14.6099C8.32 13.6199 9.13 12.8099 10.12 12.8099H14.42C15.41 12.8099 16.22 13.6199 16.22 14.6099V21.6199C16.22 22.0599 16.58 22.4199 17.02 22.4199H20.06C20.88 22.4199 21.54 21.7599 21.54 20.9399V9.28988C21.54 9.08988 21.45 8.88988 21.28 8.76988H21.27Z" fill="#5399FF" stroke="#5399FF" stroke-width="2" stroke-miterlimit="10" stroke-linecap="round"/>
</g>
<defs>
<clipPath id="clip0_527_63946">
<rect width="20.53" height="22.42" fill="white" transform="translate(2 1)"/>
</clipPath>
</defs>
</svg>
