<svg width="136" height="136" viewBox="0 0 136 136" fill="none" xmlns="http://www.w3.org/2000/svg">
<g clip-path="url(#clip0_654_67128)">
<path d="M83.9699 65.95L76.3899 63.4L89.5599 24.27C91.1699 19.48 95.6499 16.26 100.71 16.26H111.19C111.85 16.26 112.39 16.8 112.39 17.46V23.06C112.39 23.72 111.85 24.26 111.19 24.26H100.71C99.0899 24.26 97.6599 25.29 97.1399 26.83L83.9699 65.96V65.95Z" fill="#60F3C9" stroke="#3A3A3A" stroke-width="4.5" stroke-miterlimit="10"/>
<path d="M87.2699 130.65H47.47C44.51 130.65 41.94 128.62 41.42 125.86L28.95 59.0699H105.79L93.32 125.86C92.8 128.62 90.2399 130.65 87.2699 130.65V130.65Z" fill="white"/>
<path d="M31.3899 59.0699L32.4399 65.9499H95.1499L86.0499 125.56C85.5999 128.49 83.0799 130.65 80.1199 130.65H87.2699C90.2299 130.65 92.7999 128.62 93.3199 125.86L105.79 59.0699H31.3899V59.0699Z" fill="#90B9E9"/>
<path d="M108.49 49.22H26.25C25.1454 49.22 24.25 50.1154 24.25 51.22V57.07C24.25 58.1745 25.1454 59.07 26.25 59.07H108.49C109.595 59.07 110.49 58.1745 110.49 57.07V51.22C110.49 50.1154 109.595 49.22 108.49 49.22Z" fill="#D1FAFF" stroke="#3A3A3A" stroke-width="4.5" stroke-miterlimit="10"/>
<path d="M53.3301 79.2V81.2" stroke="#3A3A3A" stroke-width="5.5" stroke-miterlimit="10" stroke-linecap="round"/>
<path d="M81.4102 79.2V81.2" stroke="#3A3A3A" stroke-width="5.5" stroke-miterlimit="10" stroke-linecap="round"/>
<path d="M67.3701 81.2C64.7201 81.2 62.4401 82.78 61.4301 85.04C60.8701 86.29 61.8201 87.69 63.1901 87.69H71.5601C72.9301 87.69 73.8801 86.28 73.3201 85.04C72.3001 82.78 70.0201 81.2 67.3801 81.2H67.3701Z" fill="#FF9696" stroke="#3A3A3A" stroke-width="4" stroke-miterlimit="10" stroke-linecap="round"/>
<path d="M93.3199 125.57L95.7999 110.63H38.9399L41.4199 125.57C41.9399 128.33 44.4999 130.36 47.4699 130.36H87.2699C90.2299 130.36 92.7999 128.33 93.3199 125.57Z" fill="#44DFC7"/>
<path d="M87.2699 130.36C90.2299 130.36 92.7999 128.33 93.3199 125.57L95.7999 110.63H88.3399L86.0599 125.55C85.7099 127.88 84.0399 129.7 81.8799 130.36H87.2699Z" fill="#2AC6A8"/>
<path d="M43.8201 110.93C43.2201 110.33 43.2201 109.34 43.8201 108.74L51.2201 101.34C51.8201 100.74 52.8101 100.74 53.4101 101.34L60.8101 108.74C61.4101 109.34 61.4101 110.33 60.8101 110.93L53.4101 118.33C52.8101 118.93 51.8201 118.93 51.2201 118.33L48.7501 115.86" fill="#F7FCFF"/>
<path d="M43.8201 110.93C43.2201 110.33 43.2201 109.34 43.8201 108.74L51.2201 101.34C51.8201 100.74 52.8101 100.74 53.4101 101.34L60.8101 108.74C61.4101 109.34 61.4101 110.33 60.8101 110.93L53.4101 118.33C52.8101 118.93 51.8201 118.93 51.2201 118.33L48.7501 115.86" stroke="#3A3A3A" stroke-width="4" stroke-miterlimit="10" stroke-linecap="round"/>
<path d="M66.03 105.13H77.29C78.15 105.13 78.84 105.82 78.84 106.68V117.94C78.84 118.8 78.15 119.49 77.29 119.49H66.03C65.17 119.49 64.48 118.8 64.48 117.94V112.88" fill="#F7FCFF"/>
<path d="M66.03 105.13H77.29C78.15 105.13 78.84 105.82 78.84 106.68V117.94C78.84 118.8 78.15 119.49 77.29 119.49H66.03C65.17 119.49 64.48 118.8 64.48 117.94V112.88" stroke="#3A3A3A" stroke-width="4" stroke-miterlimit="10" stroke-linecap="round"/>
<path d="M87.2699 130.65H47.47C44.51 130.65 41.94 128.62 41.42 125.86L28.95 59.0699H105.79L93.32 125.86C92.8 128.62 90.2399 130.65 87.2699 130.65V130.65Z" stroke="#3A3A3A" stroke-width="4.5" stroke-miterlimit="10"/>
<path d="M80.73 59.0699V68.3099C80.73 70.1399 82.23 71.6399 84.06 71.6399C85.89 71.6399 87.39 70.1399 87.39 68.3099V67.5099C87.39 66.3499 88.33 65.3999 89.5 65.3999C90.66 65.3999 91.61 66.3399 91.61 67.5099V74.6399C91.61 76.4699 93.11 77.9699 94.94 77.9699C96.77 77.9699 98.27 76.4699 98.27 74.6399V59.0799H80.75L80.73 59.0699Z" fill="#44DFC7" stroke="#3A3A3A" stroke-width="3.5" stroke-miterlimit="10"/>
<path d="M95.7999 110.12H38.9399" stroke="#3A3A3A" stroke-width="3.5" stroke-miterlimit="10" stroke-linecap="round"/>
</g>
<defs>
<clipPath id="clip0_654_67128">
<rect width="92.64" height="118.9" fill="white" transform="translate(22 14)"/>
</clipPath>
</defs>
</svg>
