<svg width="24" height="24" viewBox="0 0 24 24" fill="none" xmlns="http://www.w3.org/2000/svg">
<g clip-path="url(#clip0_527_63941)">
<path d="M11.8999 14.8699C13.5402 14.8699 14.8699 13.5402 14.8699 11.8999C14.8699 10.2596 13.5402 8.92993 11.8999 8.92993C10.2596 8.92993 8.92993 10.2596 8.92993 11.8999C8.92993 13.5402 10.2596 14.8699 11.8999 14.8699Z" stroke="#3A3A3A" stroke-width="2" stroke-miterlimit="10" stroke-linecap="round"/>
<path d="M21.05 9.99L19.54 9.85C19.36 9.18 19.1 8.54 18.76 7.95L19.73 6.79C20.19 6.24 20.13 5.41 19.6 4.88L18.93 4.21C18.4 3.68 17.57 3.62 17.02 4.08L15.86 5.05C15.27 4.71 14.64 4.45 13.96 4.27L13.82 2.76C13.76 2.05 13.13 1.5 12.38 1.5H11.44C10.69 1.5 10.06 2.05 10 2.76L9.86001 4.27C9.19001 4.45 8.55001 4.71 7.96001 5.05L6.80001 4.08C6.25001 3.62 5.42001 3.68 4.89001 4.21L4.22001 4.88C3.69001 5.41 3.63001 6.24 4.09001 6.79L5.06001 7.95C4.72001 8.54 4.46001 9.17 4.28001 9.85L2.77001 9.99C2.06001 10.05 1.51001 10.68 1.51001 11.43V12.37C1.51001 13.12 2.06001 13.75 2.77001 13.81L4.28001 13.95C4.46001 14.62 4.72001 15.26 5.06001 15.85L4.09001 17.01C3.63001 17.56 3.69001 18.39 4.22001 18.92L4.89001 19.59C5.42001 20.12 6.25001 20.18 6.80001 19.72L7.96001 18.75C8.55001 19.09 9.18001 19.35 9.86001 19.53L10 21.04C10.06 21.75 10.69 22.3 11.44 22.3H12.38C13.13 22.3 13.76 21.75 13.82 21.04L13.96 19.53C14.63 19.35 15.27 19.09 15.86 18.75L17.02 19.72C17.57 20.18 18.4 20.12 18.93 19.59L19.6 18.92C20.13 18.39 20.19 17.56 19.73 17.01L18.76 15.85C19.1 15.26 19.36 14.63 19.54 13.95L21.05 13.81C21.76 13.75 22.31 13.12 22.31 12.37V11.43C22.31 10.68 21.76 10.05 21.05 9.99V9.99Z" stroke="#3A3A3A" stroke-width="2" stroke-miterlimit="10" stroke-linecap="round"/>
</g>
<defs>
<clipPath id="clip0_527_63941">
<rect width="22.81" height="22.81" fill="white" transform="translate(0.5 0.5)"/>
</clipPath>
</defs>
</svg>
