<svg width="44" height="42" viewBox="0 0 44 42" fill="none" xmlns="http://www.w3.org/2000/svg">
<g clip-path="url(#clip0_504_64153)">
<path opacity="0.4" d="M40.25 37.53H10.96C9.98996 37.53 9.20996 36.75 9.20996 35.78V14.02C9.20996 13.05 9.98996 12.27 10.96 12.27H16.57C17.1 12.27 17.61 12.51 17.94 12.93L20.47 16.11C20.8 16.53 21.31 16.77 21.84 16.77H40.24C41.21 16.77 41.99 17.55 41.99 18.52V35.78C41.99 36.75 41.21 37.53 40.24 37.53H40.25Z" fill="url(#paint0_linear_504_64153)"/>
<path d="M36.3 37.53H8C5.1 37.53 2.75 35.18 2.75 32.28V9C2.75 6.1 5.1 3.75 8 3.75H15.38C16.59 3.75 17.71 4.37 18.35 5.4L22.15 11.77H36.3C39.2 11.77 41.55 14.12 41.55 17.02V32.28C41.55 35.18 39.2 37.53 36.3 37.53Z" stroke="#5399FF" stroke-width="3.5" stroke-linecap="round" stroke-linejoin="round"/>
<path d="M35.25 24.56L31.1 22.47L26.96 24.56V12.03H35.25V24.56Z" stroke="#5399FF" stroke-width="3.5" stroke-linecap="round" stroke-linejoin="round"/>
<path d="M22.15 11.7599H36.3C37.05 11.7599 37.76 11.9199 38.4 12.1999V9.17993C38.4 7.24993 36.83 5.67993 34.9 5.67993H18.52L22.15 11.7599Z" stroke="#5399FF" stroke-width="3.5" stroke-linecap="round" stroke-linejoin="round"/>
</g>
<defs>
<linearGradient id="paint0_linear_504_64153" x1="7.1365" y1="12.1954" x2="44.9656" y2="12.9153" gradientUnits="userSpaceOnUse">
<stop stop-color="#24FFDD"/>
<stop offset="1" stop-color="#32C1FF"/>
</linearGradient>
<clipPath id="clip0_504_64153">
<rect width="42.3" height="37.28" fill="white" transform="translate(1 2)"/>
</clipPath>
</defs>
</svg>
