<svg width="24" height="24" viewBox="0 0 24 24" fill="none" xmlns="http://www.w3.org/2000/svg">
<g clip-path="url(#clip0_527_63960)">
<path d="M21.14 8.98999L20.29 8.90999C20.19 8.62999 20.07 8.34999 19.95 8.07999L20.49 7.42999C21.28 6.47999 21.2 5.06999 20.3 4.16999L19.63 3.49999C18.73 2.59999 17.33 2.50999 16.37 3.30999L15.72 3.84999C15.45 3.71999 15.17 3.60999 14.89 3.50999L14.81 2.65999C14.7 1.41999 13.65 0.48999 12.37 0.48999H11.43C10.15 0.48999 9.09999 1.41999 8.98999 2.65999L8.90999 3.50999C8.62999 3.60999 8.34999 3.72999 8.07999 3.84999L7.42999 3.30999C6.47999 2.51999 5.07999 2.59999 4.16999 3.49999L3.49999 4.16999C2.59999 5.06999 2.50999 6.47999 3.30999 7.42999L3.84999 8.07999C3.71999 8.34999 3.60999 8.62999 3.50999 8.90999L2.65999 8.98999C1.41999 9.09999 0.48999 10.15 0.48999 11.43V12.37C0.48999 13.65 1.41999 14.7 2.65999 14.81L3.50999 14.89C3.60999 15.17 3.72999 15.45 3.84999 15.72L3.30999 16.37C2.50999 17.32 2.59999 18.73 3.49999 19.63L4.16999 20.3C5.06999 21.2 6.47999 21.29 7.42999 20.49L8.07999 19.95C8.34999 20.08 8.62999 20.19 8.90999 20.29L8.98999 21.14C9.09999 22.38 10.15 23.31 11.43 23.31H12.37C13.65 23.31 14.7 22.38 14.81 21.14L14.89 20.29C15.17 20.19 15.45 20.07 15.72 19.95L16.37 20.49C17.32 21.28 18.72 21.2 19.63 20.3L20.3 19.63C21.2 18.73 21.29 17.32 20.49 16.37L19.95 15.72C20.08 15.45 20.19 15.17 20.29 14.89L21.14 14.81C22.38 14.7 23.31 13.65 23.31 12.37V11.43C23.31 10.15 22.38 9.09999 21.14 8.98999V8.98999ZM11.91 15.32C10.03 15.32 8.48999 13.79 8.48999 11.9C8.48999 10.01 10.02 8.47999 11.91 8.47999C13.8 8.47999 15.33 10.01 15.33 11.9C15.33 13.79 13.8 15.32 11.91 15.32Z" fill="#5399FF"/>
</g>
<defs>
<clipPath id="clip0_527_63960">
<rect width="22.81" height="22.81" fill="white" transform="translate(0.5 0.5)"/>
</clipPath>
</defs>
</svg>
