<svg width="32" height="32" viewBox="0 0 32 32" fill="none" xmlns="http://www.w3.org/2000/svg">
<rect width="32" height="32" fill="white"/>
<g clip-path="url(#clip0_314_63123)">
<path d="M14.0499 20.5801H9.93994C9.67472 20.5801 9.42037 20.4747 9.23283 20.2872C9.0453 20.0996 8.93994 19.8453 8.93994 19.5801V15.4701C8.94362 15.2053 9.04721 14.9517 9.22994 14.7601L19.7099 4.29006C19.8973 4.10381 20.1508 3.99927 20.4149 3.99927C20.6791 3.99927 20.9326 4.10381 21.1199 4.29006L25.2299 8.40006C25.3237 8.49302 25.3981 8.60362 25.4488 8.72548C25.4996 8.84734 25.5257 8.97805 25.5257 9.11006C25.5257 9.24207 25.4996 9.37278 25.4488 9.49464C25.3981 9.6165 25.3237 9.7271 25.2299 9.82006L14.7599 20.2901C14.6665 20.3827 14.5557 20.4561 14.4338 20.5058C14.312 20.5556 14.1815 20.5808 14.0499 20.5801Z" fill="#3A3A3A"/>
<path d="M6 24H24.53V25.55C24.53 26.0804 24.3193 26.5891 23.9442 26.9642C23.5691 27.3393 23.0604 27.55 22.53 27.55H8C7.46957 27.55 6.96086 27.3393 6.58579 26.9642C6.21071 26.5891 6 26.0804 6 25.55V24Z" fill="#DEDEDE"/>
</g>
<defs>
<clipPath id="clip0_314_63123">
<rect width="19.53" height="23.54" fill="white" transform="translate(6 4)"/>
</clipPath>
</defs>
</svg>
