<svg width="24" height="24" viewBox="0 0 24 24" fill="none" xmlns="http://www.w3.org/2000/svg">
<g clip-path="url(#clip0_527_63936)">
<path d="M20.05 22.4199H4.48C3.66 22.4199 3 21.7599 3 20.9399V9.28988C3 9.08988 3.09 8.88988 3.26 8.76988L11.86 2.13988C12.1 1.95988 12.43 1.95988 12.66 2.13988L21.27 8.77988C21.43 8.89988 21.53 9.09988 21.53 9.29988V20.9499C21.53 21.7699 20.87 22.4299 20.05 22.4299V22.4199Z" stroke="#3A3A3A" stroke-width="2" stroke-miterlimit="10" stroke-linecap="round"/>
<path d="M10.7199 12.1201H13.8199C14.8099 12.1201 15.6199 12.9301 15.6199 13.9201V22.4201H8.91992V13.9201C8.91992 12.9301 9.72992 12.1201 10.7199 12.1201Z" stroke="#3A3A3A" stroke-width="2" stroke-miterlimit="10" stroke-linecap="round"/>
</g>
<defs>
<clipPath id="clip0_527_63936">
<rect width="20.53" height="22.42" fill="white" transform="translate(2 1)"/>
</clipPath>
</defs>
</svg>
