<svg width="44" height="42" viewBox="0 0 44 42" fill="none" xmlns="http://www.w3.org/2000/svg">
<g clip-path="url(#clip0_504_64135)">
<path opacity="0.4" d="M39.54 18.5601H10.76C9.65544 18.5601 8.76001 19.4555 8.76001 20.5601V37.3201C8.76001 38.4246 9.65544 39.3201 10.76 39.3201H39.54C40.6446 39.3201 41.54 38.4246 41.54 37.3201V20.5601C41.54 19.4555 40.6446 18.5601 39.54 18.5601Z" fill="url(#paint0_linear_504_64135)"/>
<path d="M35.55 7.19995H8.75C5.43629 7.19995 2.75 9.88624 2.75 13.2V33.32C2.75 36.6337 5.43629 39.32 8.75 39.32H35.55C38.8637 39.32 41.55 36.6337 41.55 33.32V13.2C41.55 9.88624 38.8637 7.19995 35.55 7.19995Z" stroke="#5399FF" stroke-width="3.5" stroke-linecap="round" stroke-linejoin="round"/>
<path d="M11.6499 2.75V9.27" stroke="#5399FF" stroke-width="3.5" stroke-linecap="round" stroke-linejoin="round"/>
<path d="M32.6399 2.75V9.27" stroke="#5399FF" stroke-width="3.5" stroke-linecap="round" stroke-linejoin="round"/>
<path d="M41.55 14.0901H2.75" stroke="#5399FF" stroke-width="3.5" stroke-linecap="round" stroke-linejoin="round"/>
<path d="M11.6599 20.3999H9.62988C9.0776 20.3999 8.62988 20.8476 8.62988 21.3999V23.4299C8.62988 23.9822 9.0776 24.4299 9.62988 24.4299H11.6599C12.2122 24.4299 12.6599 23.9822 12.6599 23.4299V21.3999C12.6599 20.8476 12.2122 20.3999 11.6599 20.3999Z" fill="#5399FF"/>
<path d="M19.3298 20.3999H17.2998C16.7475 20.3999 16.2998 20.8476 16.2998 21.3999V23.4299C16.2998 23.9822 16.7475 24.4299 17.2998 24.4299H19.3298C19.8821 24.4299 20.3298 23.9822 20.3298 23.4299V21.3999C20.3298 20.8476 19.8821 20.3999 19.3298 20.3999Z" fill="#5399FF"/>
<path d="M27 20.3999H24.97C24.4177 20.3999 23.97 20.8476 23.97 21.3999V23.4299C23.97 23.9822 24.4177 24.4299 24.97 24.4299H27C27.5523 24.4299 28 23.9822 28 23.4299V21.3999C28 20.8476 27.5523 20.3999 27 20.3999Z" fill="#5399FF"/>
<path d="M34.6699 20.3999H32.6399C32.0876 20.3999 31.6399 20.8476 31.6399 21.3999V23.4299C31.6399 23.9822 32.0876 24.4299 32.6399 24.4299H34.6699C35.2222 24.4299 35.6699 23.9822 35.6699 23.4299V21.3999C35.6699 20.8476 35.2222 20.3999 34.6699 20.3999Z" fill="#5399FF"/>
<path d="M11.6599 28.99H9.62988C9.0776 28.99 8.62988 29.4377 8.62988 29.99V32.02C8.62988 32.5723 9.0776 33.02 9.62988 33.02H11.6599C12.2122 33.02 12.6599 32.5723 12.6599 32.02V29.99C12.6599 29.4377 12.2122 28.99 11.6599 28.99Z" fill="#5399FF"/>
<path d="M19.3298 28.99H17.2998C16.7475 28.99 16.2998 29.4377 16.2998 29.99V32.02C16.2998 32.5723 16.7475 33.02 17.2998 33.02H19.3298C19.8821 33.02 20.3298 32.5723 20.3298 32.02V29.99C20.3298 29.4377 19.8821 28.99 19.3298 28.99Z" fill="#5399FF"/>
<path d="M27 28.99H24.97C24.4177 28.99 23.97 29.4377 23.97 29.99V32.02C23.97 32.5723 24.4177 33.02 24.97 33.02H27C27.5523 33.02 28 32.5723 28 32.02V29.99C28 29.4377 27.5523 28.99 27 28.99Z" fill="#5399FF"/>
<path d="M34.6699 28.99H32.6399C32.0876 28.99 31.6399 29.4377 31.6399 29.99V32.02C31.6399 32.5723 32.0876 33.02 32.6399 33.02H34.6699C35.2222 33.02 35.6699 32.5723 35.6699 32.02V29.99C35.6699 29.4377 35.2222 28.99 34.6699 28.99Z" fill="#5399FF"/>
</g>
<defs>
<linearGradient id="paint0_linear_504_64135" x1="6.68655" y1="18.4987" x2="44.509" y2="19.3746" gradientUnits="userSpaceOnUse">
<stop stop-color="#24FFDD"/>
<stop offset="1" stop-color="#32C1FF"/>
</linearGradient>
<clipPath id="clip0_504_64135">
<rect width="42.3" height="40.07" fill="white" transform="translate(1 1)"/>
</clipPath>
</defs>
</svg>
