<svg width="246" height="246" viewBox="0 0 246 246" fill="none" xmlns="http://www.w3.org/2000/svg">
<g clip-path="url(#clip0_398_63714)">
<path d="M122.946 165.761C99.3277 165.761 80.1309 146.565 80.1309 122.946C80.1309 99.3275 99.3277 80.1306 122.946 80.1306C146.565 80.1306 165.762 99.3275 165.762 122.946C165.762 146.565 146.565 165.761 122.946 165.761ZM122.946 101.808C111.299 101.808 101.7 111.299 101.7 123.054C101.7 134.809 111.191 144.3 122.946 144.3C134.702 144.3 144.192 134.809 144.192 123.054C144.192 111.299 134.702 101.808 122.946 101.808Z" fill="#F1F1F1"/>
<path d="M128.123 246H117.985C104.181 246 92.8566 235.97 91.6703 222.597L90.8075 213.43C87.7878 212.352 84.7681 211.057 81.8562 209.763L74.8461 215.587C64.4928 224.215 49.3941 223.244 39.6879 213.538L32.4621 206.312C22.7558 196.606 21.7852 181.399 30.413 171.154L36.2367 164.144C34.8347 161.232 33.6484 158.212 32.5699 155.192L23.4029 154.33C10.0298 153.143 0 141.819 0 128.015V117.877C0 104.073 10.0298 92.7487 23.4029 91.5624L32.5699 90.6996C33.6484 87.6799 34.9426 84.6602 36.2367 81.7483L30.413 74.7382C21.893 64.4927 22.7558 49.2862 32.4621 39.5799L39.6879 32.3542C49.3941 22.6479 64.4928 21.6773 74.8461 30.3051L81.8562 36.1288C84.7681 34.7268 87.7878 33.5405 90.8075 32.462L91.6703 23.295C92.8566 9.9219 104.181 -0.10791 117.985 -0.10791H128.123C141.927 -0.10791 153.251 9.9219 154.438 23.295L155.3 32.462C158.32 33.5405 161.34 34.8347 164.252 36.1288L171.262 30.3051C181.507 21.7851 196.606 22.6479 206.42 32.3542L213.646 39.5799C223.352 49.2862 224.323 64.3849 215.695 74.7382L209.871 81.7483C211.273 84.6602 212.459 87.6799 213.538 90.6996L222.597 91.5624C235.97 92.7487 246 104.073 246 117.877V128.015C246 141.819 235.97 153.143 222.597 154.33L213.538 155.192C212.459 158.212 211.165 161.232 209.871 164.144L215.695 171.154C224.215 181.399 223.352 196.606 213.646 206.312L206.42 213.538C196.714 223.244 181.615 224.215 171.262 215.587L164.252 209.763C161.34 211.165 158.32 212.352 155.3 213.43L154.438 222.597C153.251 235.97 141.927 246 128.123 246V246ZM79.3757 183.772L85.8466 187.547C91.3468 190.782 97.3862 193.263 103.641 194.88L110.867 196.822L113.024 220.656C113.24 222.813 115.289 224.43 117.877 224.43H128.015C130.495 224.43 132.652 222.813 132.868 220.656L135.025 196.822L142.251 194.88C148.506 193.155 154.545 190.674 160.153 187.547L166.624 183.772L184.958 199.086C186.576 200.488 189.272 200.165 190.998 198.331L198.224 191.106C200.057 189.272 200.381 186.684 198.979 185.066L183.664 166.732L187.439 160.261C190.674 154.653 193.155 148.614 194.772 142.466L196.714 135.241L220.548 133.084C222.705 132.868 224.323 130.819 224.323 128.231V118.093C224.323 115.612 222.705 113.455 220.548 113.24L196.714 111.083L194.772 103.857C193.047 97.6019 190.566 91.5624 187.439 86.0622L183.664 79.5913L198.979 61.2573C200.381 59.6396 200.057 56.9434 198.224 55.2178L190.998 47.992C189.164 46.2665 186.576 45.8351 184.851 47.2371L166.516 62.5515L160.046 58.7768C154.438 55.5414 148.506 53.0609 142.143 51.4432L134.917 49.5019L132.76 25.6676C132.545 23.5107 130.495 21.893 127.907 21.893H117.769C115.289 21.893 113.132 23.5107 112.916 25.6676L110.759 49.5019L103.534 51.4432C97.2784 53.1687 91.2389 55.6492 85.7387 58.7768L79.2679 62.5515L60.9338 47.2371C59.3161 45.9429 56.6199 46.1586 54.8943 47.992L47.6686 55.2178C45.8352 56.9434 45.5116 59.6396 46.9136 61.2573L62.228 79.5913L58.4533 86.0622C55.2179 91.6703 52.7374 97.6019 51.1197 103.857L49.1784 111.083L25.3441 113.24C23.1872 113.455 21.5695 115.505 21.5695 118.093V128.231C21.5695 130.711 23.1872 132.868 25.3441 133.084L49.1784 135.241L51.1197 142.466C52.8452 148.722 55.3257 154.761 58.4533 160.261L62.228 166.732L46.9136 185.066C45.5116 186.684 45.8352 189.38 47.6686 191.106L54.8943 198.331C56.7278 200.165 59.3161 200.488 61.0417 199.086L79.3757 183.772V183.772Z" fill="#F1F1F1"/>
</g>
<defs>
<clipPath id="clip0_398_63714">
<rect width="246" height="246" fill="white"/>
</clipPath>
</defs>
</svg>
