<svg width="224" height="228" viewBox="0 0 224 228" fill="none" xmlns="http://www.w3.org/2000/svg">
<ellipse cx="112" cy="210.5" rx="75" ry="13.5" fill="#3780EB"/>
<g clip-path="url(#clip0_695_66465)">
<path d="M169.586 69.0265C169.586 49.0054 150.572 37.2101 133.218 35.6688C114.041 33.9652 103.394 30.9961 88.515 11.8998C87.3917 10.4558 85.2917 10.2287 83.8754 11.3806C76.2079 17.6271 54.9634 38.07 57.1123 71.233H169.586V69.0102V69.0265Z" fill="#FFFFFD"/>
<path d="M169.407 65.96C169.407 65.8464 169.391 65.7166 169.375 65.6031C169.261 64.662 169.114 63.7373 168.919 62.8287C168.886 62.6827 168.854 62.5204 168.821 62.3744C168.626 61.4983 168.382 60.6221 168.089 59.7785C168.04 59.6324 167.991 59.4864 167.942 59.3404C167.649 58.4967 167.323 57.6693 166.949 56.858C166.9 56.7607 166.851 56.6633 166.802 56.566C166.412 55.7223 165.972 54.8949 165.5 54.0999C165.028 53.2886 164.507 52.5099 163.954 51.7635C163.905 51.6824 163.856 51.6175 163.791 51.5364C163.254 50.8225 162.7 50.1249 162.098 49.4596C162.016 49.3623 161.919 49.265 161.837 49.1676C161.251 48.5186 160.633 47.8859 159.981 47.2693C159.884 47.1882 159.786 47.0909 159.705 47.0097C159.037 46.3932 158.37 45.7929 157.654 45.2413C157.588 45.1926 157.523 45.1439 157.458 45.079C155.944 43.8784 154.333 42.7914 152.656 41.8179C152.623 41.8017 152.574 41.7692 152.542 41.753C151.712 41.2825 150.881 40.8282 150.019 40.4064C149.937 40.3739 149.856 40.3252 149.774 40.2928C148.928 39.8872 148.065 39.4978 147.202 39.1408C147.121 39.1084 147.039 39.0759 146.958 39.0435C146.063 38.6865 145.167 38.3458 144.272 38.0376C144.223 38.0376 144.191 38.0051 144.142 37.9889C142.237 37.3561 140.3 36.8369 138.363 36.4313C146.535 41.8341 152.558 50.0275 153.144 60.6546H57.2267C57.0151 63.1856 56.9174 65.7978 56.9988 68.5073C57.0151 69.4158 57.0476 70.3082 57.1127 71.233H169.586V69.0102C169.586 67.9556 169.521 66.9497 169.423 65.9438L169.407 65.96Z" fill="#EEECE3"/>
<path d="M173.249 74.8997H53.6613L53.4334 71.4764C51.1706 36.2204 74.3848 14.4146 81.5477 8.55755C83.0128 7.37316 84.8361 6.82153 86.7082 7.03245C88.5803 7.24337 90.2408 8.16816 91.3967 9.66082C105.527 27.7836 115.083 30.3958 133.527 32.0345C152.786 33.7381 173.233 47.2855 173.233 69.0264V74.8997H173.249ZM60.6288 67.5987H165.874C164.963 51.0334 148.455 40.6984 132.876 39.3193C112.039 37.4697 100.839 33.6083 85.8617 14.4957C77.7058 21.2289 60.173 39.0759 60.6126 67.6149L60.6288 67.5987Z" fill="#3A3A3A"/>
<path d="M51.7725 124.19C76.6859 124.19 96.8823 104.061 96.8823 79.2317C96.8823 54.402 76.6859 34.2735 51.7725 34.2735C26.859 34.2735 6.6626 54.402 6.6626 79.2317C6.6626 104.061 26.859 124.19 51.7725 124.19Z" fill="#F65E5E"/>
<path d="M51.7727 127.84C24.8793 127.84 3 106.035 3 79.2317C3 52.4287 24.8793 30.623 51.7727 30.623C78.6661 30.623 100.545 52.4287 100.545 79.2317C100.545 106.035 78.6661 127.84 51.7727 127.84ZM51.7727 37.924C28.9166 37.924 10.3257 56.4524 10.3257 79.2317C10.3257 102.011 28.9166 120.539 51.7727 120.539C74.6288 120.539 93.2197 102.011 93.2197 79.2317C93.2197 56.4524 74.6288 37.924 51.7727 37.924Z" fill="#3A3A3A"/>
<path d="M51.7726 110.983C69.3676 110.983 83.6311 96.7675 83.6311 79.2317C83.6311 61.6959 69.3676 47.4803 51.7726 47.4803C34.1776 47.4803 19.9141 61.6959 19.9141 79.2317C19.9141 96.7675 34.1776 110.983 51.7726 110.983Z" fill="#FFD5A3"/>
<path d="M51.7727 74.8997C49.7541 74.8997 48.1099 73.2611 48.1099 71.2492V47.4803C48.1099 45.4684 49.7541 43.8297 51.7727 43.8297C53.7913 43.8297 55.4355 45.4684 55.4355 47.4803V71.2492C55.4355 73.2611 53.7913 74.8997 51.7727 74.8997Z" fill="#3A3A3A"/>
<path d="M51.7726 82.8822C51.154 82.8822 50.5191 82.72 49.9493 82.3955L22.356 66.5117C20.5978 65.5057 20.0117 63.2668 21.0211 61.5307C22.0304 59.7785 24.2769 59.1782 26.0188 60.2003L53.6122 76.0842C55.3703 77.0901 55.9564 79.3291 54.9471 81.0651C54.2633 82.2333 53.0424 82.8822 51.7726 82.8822Z" fill="#3A3A3A"/>
<path d="M24.1793 98.7661C22.9095 98.7661 21.6885 98.1171 21.0048 96.9489C19.9955 95.1967 20.5978 92.9739 22.3397 91.968L49.9331 76.0842C51.6912 75.0782 53.9215 75.6785 54.9308 77.4146C55.9401 79.1668 55.3378 81.3896 53.5959 82.3955L26.0025 98.2793C25.4328 98.62 24.7979 98.7661 24.1793 98.7661V98.7661Z" fill="#3A3A3A"/>
<path d="M51.7728 114.634C32.1889 114.634 16.2515 98.7498 16.2515 79.2317C16.2515 59.7136 32.1889 43.8297 51.7728 43.8297C71.3568 43.8297 87.2942 59.7136 87.2942 79.2317C87.2942 98.7498 71.3568 114.634 51.7728 114.634ZM51.7728 51.1146C36.2261 51.1146 23.5771 63.721 23.5771 79.2155C23.5771 94.7099 36.2261 107.316 51.7728 107.316C67.3195 107.316 79.9685 94.7099 79.9685 79.2155C79.9685 63.721 67.3195 51.1146 51.7728 51.1146Z" fill="#3A3A3A"/>
<path d="M140.072 98.3766L127.732 94.2394L149.172 30.7527C151.793 22.9812 159.086 17.7569 167.323 17.7569H184.384C185.458 17.7569 186.337 18.633 186.337 19.7038V28.7896C186.337 29.8604 185.458 30.7365 184.384 30.7365H167.323C164.686 30.7365 162.358 32.4076 161.511 34.9062L140.072 98.3929V98.3766Z" fill="#44DFC7"/>
<path d="M142.383 103.001L123.092 96.527L145.688 29.5846C148.814 20.3203 157.507 14.0901 167.307 14.0901H184.367C187.461 14.0901 189.984 16.6049 189.984 19.6876V28.7733C189.984 31.856 187.461 34.3708 184.367 34.3708H167.307C166.249 34.3708 165.304 35.0522 164.963 36.0419L142.367 102.984L142.383 103.001ZM132.371 91.9355L137.776 93.7527L158.044 33.7218C159.395 29.7468 163.123 27.0698 167.323 27.0698H182.674V21.3912H167.323C160.665 21.3912 154.755 25.6095 152.639 31.9047L132.371 91.9355Z" fill="#3A3A3A"/>
<path d="M145.444 203.349H80.6684C75.8498 203.349 71.666 200.056 70.8195 195.578L50.5029 87.2142H175.609L155.309 195.578C154.462 200.056 150.295 203.349 145.46 203.349H145.444Z" fill="#FFFFFD"/>
<path d="M90.2082 131.394C87.7338 131.394 85.7314 129.398 85.7314 126.932V123.687C85.7314 121.221 87.7338 119.225 90.2082 119.225C92.6827 119.225 94.685 121.221 94.685 123.687V126.932C94.685 129.398 92.6827 131.394 90.2082 131.394Z" fill="#3A3A3A"/>
<path d="M135.921 131.394C133.446 131.394 131.444 129.398 131.444 126.932V123.687C131.444 121.221 133.446 119.225 135.921 119.225C138.395 119.225 140.397 121.221 140.397 123.687V126.932C140.397 129.398 138.395 131.394 135.921 131.394Z" fill="#3A3A3A"/>
<path d="M103.118 129.203V133.519C103.118 138.549 106.715 143.043 111.713 143.708C117.769 144.503 122.995 139.782 122.995 133.892V129.22C122.995 127.97 121.969 126.948 120.716 126.948H105.397C104.143 126.948 103.118 127.97 103.118 129.22V129.203Z" fill="#F65E5E"/>
<path d="M113.032 147.034C112.446 147.034 111.876 147.002 111.29 146.921C104.778 146.061 99.8618 140.301 99.8618 133.519V129.203C99.8618 126.153 102.353 123.687 105.397 123.687H120.716C123.76 123.687 126.251 126.169 126.251 129.203V133.876C126.251 137.656 124.606 141.258 121.741 143.757C119.316 145.866 116.222 147.018 113.032 147.018V147.034ZM106.374 130.177V133.519C106.374 137.056 108.848 140.058 112.153 140.496C114.106 140.755 115.978 140.187 117.443 138.906C118.909 137.624 119.739 135.807 119.739 133.892V130.193H106.374V130.177Z" fill="#3A3A3A"/>
<path d="M145.981 132.919H138.981C136.464 132.919 134.423 134.949 134.423 137.453C134.423 139.958 136.464 141.988 138.981 141.988H145.981C148.499 141.988 150.539 139.958 150.539 137.453C150.539 134.949 148.499 132.919 145.981 132.919Z" fill="#FFB2B2"/>
<path d="M87.1476 132.919H80.1476C77.6301 132.919 75.5894 134.949 75.5894 137.453C75.5894 139.958 77.6301 141.988 80.1476 141.988H87.1476C89.6651 141.988 91.7058 139.958 91.7058 137.453C91.7058 134.949 89.6651 132.919 87.1476 132.919Z" fill="#FFB2B2"/>
<path d="M140.364 179.629C126.332 179.629 126.332 173.139 112.283 173.139C98.2337 173.139 98.25 179.629 84.201 179.629C75.752 179.629 72.3822 177.277 67.9868 175.411L70.9985 195.075C71.7311 199.829 75.8334 203.333 80.6521 203.333H145.444C150.262 203.333 154.365 199.829 155.097 195.075L158.207 174.762C152.916 176.676 149.806 179.629 140.364 179.629V179.629Z" fill="#5298FF"/>
<path d="M169.846 87.8632H52.7168L54.4261 99.0257H156.513L141.699 195.74C140.967 200.494 136.864 203.998 132.046 203.998H143.669C148.488 203.998 152.59 200.494 153.323 195.74L173.818 87.8794H169.846V87.8632Z" fill="#DBD7D2"/>
<path d="M157.246 175.151C153.258 176.757 150.295 178.834 144.206 179.451L141.716 195.74C141.178 199.277 138.753 202.133 135.562 203.349H145.476C146.323 203.349 147.137 203.203 147.918 203.009C150.751 201.646 152.851 199.001 153.355 195.74L157.262 175.151H157.246Z" fill="#428DE9"/>
<path d="M179.988 71.2492H46.1074C44.3093 71.2492 42.8516 72.702 42.8516 74.4941V83.9855C42.8516 85.7776 44.3093 87.2304 46.1074 87.2304H179.988C181.786 87.2304 183.244 85.7776 183.244 83.9855V74.4941C183.244 72.702 181.786 71.2492 179.988 71.2492Z" fill="#44DFC7"/>
<path d="M180.005 90.8647H46.1077C42.2983 90.8647 39.189 87.7658 39.189 83.9692V74.4779C39.189 70.6813 42.2983 67.5825 46.1077 67.5825H180.005C183.814 67.5825 186.923 70.6813 186.923 74.4779V83.9692C186.923 87.7658 183.814 90.8647 180.005 90.8647ZM46.5309 83.5636H179.598V74.8835H46.5146V83.5636H46.5309Z" fill="#3A3A3A"/>
<path d="M145.444 207H80.6685C73.9777 207 68.3939 202.214 67.3846 195.643L63.3799 169.489L69.4358 172.069C70.2009 172.393 70.9497 172.734 71.6986 173.091C75.0684 174.648 77.9987 175.995 84.2174 175.995C90.436 175.995 93.3337 174.648 96.7198 173.091C100.35 171.403 104.469 169.505 112.299 169.505C120.129 169.505 124.248 171.403 127.878 173.091C131.248 174.648 134.162 175.995 140.381 175.995C146.6 175.995 149.514 174.648 152.9 173.091C154.169 172.507 155.472 171.906 156.969 171.355L162.781 169.245L158.744 195.659C157.735 202.246 152.151 207.016 145.46 207.016L145.444 207ZM72.6102 181.398L74.6126 194.523C75.0684 197.525 77.608 199.683 80.6522 199.683H145.444C148.488 199.683 151.027 197.509 151.483 194.523L153.6 180.749C150.441 182.079 146.567 183.263 140.381 183.263C132.551 183.263 128.432 181.365 124.802 179.678C121.432 178.12 118.518 176.774 112.299 176.774C106.08 176.774 103.183 178.12 99.7966 179.678C96.1663 181.365 92.0477 183.263 84.2174 183.263C79.0405 183.263 75.4917 182.436 72.6265 181.381L72.6102 181.398Z" fill="#3A3A3A"/>
<path d="M145.444 207H80.6683C74.0427 207 68.3937 202.473 67.2216 196.243L46.1074 83.5636H180.021L158.906 196.243C157.734 202.473 152.085 207 145.46 207H145.444ZM54.9145 90.8647L74.4171 194.896C74.9217 197.622 77.6078 199.699 80.6683 199.699H145.46C148.504 199.699 151.19 197.638 151.711 194.896L171.214 90.8647H54.9145Z" fill="#3A3A3A"/>
</g>
<defs>
<clipPath id="clip0_695_66465">
<rect width="187" height="200" fill="white" transform="translate(3 7)"/>
</clipPath>
</defs>
</svg>
